<?xml version="1.0" ?>
<!-- Uploaded to: SVG Repo, www.svgrepo.com, Generator: SVG Repo Mixer Tools -->
<svg fill="#000000" width="800px" height="800px" viewBox="0 0 100 100" version="1.1" xml:space="preserve" xmlns="http://www.w3.org/2000/svg" xmlns:xlink="http://www.w3.org/1999/xlink">
<g id="jackhammer"/>
<g id="drilling_machine"/>
<g id="hammer"/>
<g id="measuring_tape"/>
<g id="wrench"/>
<g id="saw"/>
<g id="building"/>
<g id="wall"/>
<g id="crane"/>
<g id="barrier_sign"/>
<g id="concept"/>
<g id="shovel"/>
<g id="architecture"/>
<g id="safety_helmet"/>
<g id="worker"/>
<g id="teamwork">
<path d="M84.1,53.3c2.4-2,3.9-5,3.9-8.3v-3h1.3c1.5,0,2.7-1.2,2.7-2.7v-0.5c0-1.3-0.8-2.3-2-2.6V35c0-3.5-1.4-6.7-3.8-9.2   c-0.1-0.1-0.1-0.1-0.2-0.2V25c0-0.6-0.4-1-1-1c-0.3,0-0.5,0.1-0.7,0.3c-1-0.7-2.1-1.2-3.3-1.6V22c0-1.1-0.9-2-2-2h-4   c-1.1,0-2,0.9-2,2v0.6c-1.2,0.4-2.3,0.9-3.3,1.6C69.5,24.1,69.3,24,69,24c-0.6,0-1,0.4-1,1v0.6c-2.5,2.4-4,5.7-4,9.4v1.1   c-0.8,0.2-1.4,0.8-1.8,1.5c-0.6-1.8-1.7-3.4-3-4.8c-0.1-0.1-0.1-0.1-0.2-0.2V32c0-0.6-0.4-1-1-1c-0.3,0-0.5,0.1-0.7,0.3   c-1-0.7-2.1-1.2-3.3-1.6V29c0-1.1-0.9-2-2-2h-4c-1.1,0-2,0.9-2,2v0.6c-1.2,0.4-2.3,0.9-3.3,1.6C42.5,31.1,42.3,31,42,31   c-0.6,0-1,0.4-1,1v0.6c-1.4,1.4-2.6,3.1-3.2,5c-0.3-0.7-1-1.3-1.8-1.5V35c0-3.5-1.4-6.7-3.8-9.2c-0.1-0.1-0.1-0.1-0.2-0.2V25   c0-0.6-0.4-1-1-1c-0.3,0-0.5,0.1-0.7,0.3c-1-0.7-2.1-1.2-3.3-1.6V22c0-1.1-0.9-2-2-2h-4c-1.1,0-2,0.9-2,2v0.6   c-1.2,0.4-2.3,0.9-3.3,1.6C15.5,24.1,15.3,24,15,24c-0.6,0-1,0.4-1,1v0.6c-2.5,2.4-4,5.7-4,9.4v1.1c-1.2,0.3-2,1.4-2,2.6v0.5   c0,1.5,1.2,2.7,2.7,2.7H12v3c0,3.3,1.5,6.3,3.9,8.3C9.1,54.8,4,60.9,4,68v4c0,0.6,0.4,1,1,1h26.2c-0.1,0.7-0.2,1.3-0.2,2v4   c0,0.6,0.4,1,1,1h36c0.6,0,1-0.4,1-1v-4c0-0.7-0.1-1.3-0.2-2H95c0.6,0,1-0.4,1-1v-4C96,60.9,90.9,54.8,84.1,53.3z M86,45   c0,5-4,9-9,9s-9-4-9-9v-3h18V45z M77,27c1.7,0,3,1.3,3,3s-1.3,3-3,3s-3-1.3-3-3S75.3,27,77,27z M79,22v3.4c-0.6-0.3-1.3-0.4-2-0.4   s-1.4,0.2-2,0.4V22H79z M66,35c0-2.3,0.7-4.5,2-6.3V33c0,0.6,0.4,1,1,1s1-0.4,1-1v-6.5c0.9-0.7,1.9-1.3,3-1.8V27c0,0,0,0,0,0   c-0.6,0.8-1,1.9-1,3c0,2.8,2.2,5,5,5s5-2.2,5-5c0-1.1-0.4-2.1-1-3c0,0,0,0,0,0v-2.2c1.1,0.4,2.1,1,3,1.8V33c0,0.6,0.4,1,1,1   s1-0.4,1-1v-4.3c1.3,1.8,2,4,2,6.3v1H66V35z M64,38.7c0-0.4,0.3-0.7,0.7-0.7H65h24h0.3c0.4,0,0.7,0.3,0.7,0.7v0.5   c0,0.4-0.3,0.7-0.7,0.7H87H67h-2.3c-0.4,0-0.7-0.3-0.7-0.7V38.7z M64.7,42H66v3c0,3.3,1.5,6.3,3.9,8.3c-4.4,0.9-8.1,3.8-10.2,7.8   c-0.8-0.3-1.6-0.6-2.5-0.8c2.4-2,3.9-5,3.9-8.3v-3h1.3c1.5,0,2.7-1.2,2.7-2.7v-0.5c0-1.3-0.8-2.3-2-2.6V42c0-0.2,0-0.4,0-0.7   C63.4,41.7,64.1,42,64.7,42z M42,62.6V65c0,2.8,2.2,5,5,5h6c2.8,0,5-2.2,5-5v-2.4c1.1,0.3,2.1,0.8,3,1.4V78H39V64.1   C39.9,63.5,40.9,63,42,62.6z M37.7,45H38h24h0.3c0.4,0,0.7,0.3,0.7,0.7v0.5c0,0.4-0.3,0.7-0.7,0.7H60H40h-2.3   c-0.4,0-0.7-0.3-0.7-0.7v-0.5C37,45.3,37.3,45,37.7,45z M41,49h18v3c0,3.5-2.1,6.6-5,8.1c0,0,0,0,0,0C52.7,60.7,51.4,61,50,61   c-5,0-9-4-9-9V49z M50,63c1.6,0,3.1-0.4,4.5-1c0.5,0,1,0.1,1.5,0.1V65c0,1.7-1.3,3-3,3h-6c-1.7,0-3-1.3-3-3v-2.8   c0.5-0.1,1-0.1,1.5-0.1C46.9,62.6,48.4,63,50,63z M50,34c1.7,0,3,1.3,3,3s-1.3,3-3,3s-3-1.3-3-3S48.3,34,50,34z M52,29v3.4   c-0.6-0.3-1.3-0.4-2-0.4s-1.4,0.2-2,0.4V29H52z M39,42c0-2.3,0.7-4.5,2-6.3V40c0,0.6,0.4,1,1,1s1-0.4,1-1v-6.5   c0.9-0.7,1.9-1.3,3-1.8V34c0,0,0,0,0,0c-0.6,0.8-1,1.9-1,3c0,2.8,2.2,5,5,5s5-2.2,5-5c0-1.1-0.4-2.1-1-3c0,0,0,0,0,0v-2.2   c1.1,0.4,2.1,1,3,1.8V40c0,0.6,0.4,1,1,1s1-0.4,1-1v-4.3c1.3,1.8,2,4,2,6.3v1H39V42z M37,42v1.1c-1.2,0.3-2,1.4-2,2.6v0.5   c0,1.5,1.2,2.7,2.7,2.7H39v3c0,3.3,1.5,6.3,3.9,8.3c-0.9,0.2-1.7,0.5-2.5,0.8c-2.1-4-5.8-6.9-10.2-7.8c2.4-2,3.9-5,3.9-8.3v-3h1.3   c0.7,0,1.3-0.3,1.8-0.7C37,41.6,37,41.8,37,42z M23,27c1.7,0,3,1.3,3,3s-1.3,3-3,3s-3-1.3-3-3S21.3,27,23,27z M25,22v3.4   c-0.6-0.3-1.3-0.4-2-0.4s-1.4,0.2-2,0.4V22H25z M12,35c0-2.3,0.7-4.5,2-6.3V33c0,0.6,0.4,1,1,1s1-0.4,1-1v-6.5   c0.9-0.7,1.9-1.3,3-1.8V27c0,0,0,0,0,0c-0.6,0.8-1,1.9-1,3c0,2.8,2.2,5,5,5s5-2.2,5-5c0-1.1-0.4-2.1-1-3c0,0,0,0,0,0v-2.2   c1.1,0.4,2.1,1,3,1.8V33c0,0.6,0.4,1,1,1s1-0.4,1-1v-4.3c1.3,1.8,2,4,2,6.3v1H12V35z M10,39.3v-0.5c0-0.4,0.3-0.7,0.7-0.7H11h24   h0.3c0.4,0,0.7,0.3,0.7,0.7v0.5c0,0.4-0.3,0.7-0.7,0.7H33H13h-2.3C10.3,40,10,39.7,10,39.3z M14,45v-3h18v3c0,5-4,9-9,9   S14,50,14,45z M6,71v-3c0-6.9,5.6-12.7,12.5-13c1.4,0.6,2.9,1,4.5,1c1.6,0,3.1-0.4,4.5-1c4.7,0.2,8.9,2.9,11,7c-3.4,2-5.9,5.2-7,9   H6z M33,75c0-3.6,1.5-6.9,4-9.3V78h-4V75z M67,78h-4V65.7c2.5,2.4,4,5.7,4,9.3V78z M94,71H68.4c-1.1-3.8-3.6-7-7-9   c2.1-4.1,6.4-6.8,11-7c1.4,0.6,2.9,1,4.5,1c1.6,0,3.1-0.4,4.5-1c6.9,0.3,12.5,6,12.5,13V71z"/>
</g>
<g id="roller_brush"/>
<g id="designs"/>
<g id="trolley"/>
<g id="pick_axe"/>
</svg>