<?xml version="1.0" encoding="utf-8"?>
<!-- Uploaded to: SVG Repo, www.svgrepo.com, Generator: SVG Repo Mixer Tools -->
<svg fill="#000000" version="1.1" id="Layer_1" xmlns="http://www.w3.org/2000/svg" xmlns:xlink="http://www.w3.org/1999/xlink" 
	 width="800px" height="800px" viewBox="0 0 256 190" enable-background="new 0 0 256 190" xml:space="preserve">
<path d="M48.12,27.903C48.12,13.564,59.592,2,74.023,2c14.339,0,25.903,11.564,25.903,25.903
	C99.834,42.335,88.27,53.806,74.023,53.806C59.684,53.806,48.12,42.242,48.12,27.903z M191,139h-47V97c0-20.461-17.881-37-38-37H43
	C20.912,60,1.99,79.14,2,98v77c-0.026,8.533,6.001,12.989,12,13c6.014,0.011,12-4.445,12-13v-75h8v88h78v-88h8l0.081,50.37
	c-0.053,8.729,5.342,12.446,10.919,12.63h60C207.363,163,207.363,139,191,139z M238.527,104.157
	c-2.64-2.396-5.726-3.493-9.341-3.371c-1.218,0-2.396,0.284-3.614,0.69l-18.113-16.569l11.655-13.767l18.519,16.326L254,68.825
	l-46.338-40.774l-16.366,18.641l18.031,15.879l-12.062,13.036l-16.488-15.107c0.284-1.218,0.406-2.396,0.284-3.614
	c-0.122-3.614-1.543-6.701-4.183-9.056c-2.64-2.396-5.726-3.493-9.341-3.371c-1.218,0-2.518,0.284-3.614,0.69l10.478,9.503
	l-9.259,10.153l-10.478-9.503c-0.284,1.218-0.406,2.518-0.284,3.614c0.122,3.614,1.543,6.538,4.183,8.935
	c2.64,2.396,5.726,3.493,9.341,3.371c1.218,0,2.64-0.284,3.899-0.853l16.001,14.661l-26.479,27.453
	c-1.828,1.543-2.762,3.736-2.762,6.132c0,4.467,3.614,8.082,8.082,8.082c2.762,0,5.158-1.421,6.701-3.493L198.85,95.1l15.067,13.767
	l2.518,2.396c-0.284,1.218-0.406,2.64-0.406,3.899c0.122,3.614,1.543,6.538,4.183,9.056c2.64,2.396,5.726,3.493,9.341,3.371
	c1.218,0,2.396-0.284,3.614-0.69l-10.478-9.503l9.341-10.193l10.356,9.544c0.284-1.218,0.406-2.518,0.284-3.614
	C242.588,109.436,241.167,106.512,238.527,104.157z"/>
</svg>