<?xml version="1.0" encoding="utf-8"?>
<!-- Uploaded to: SVG Repo, www.svgrepo.com, Generator: SVG Repo Mixer Tools -->
<svg fill="#000000" version="1.1" id="Layer_1" xmlns="http://www.w3.org/2000/svg" xmlns:xlink="http://www.w3.org/1999/xlink" 
	 width="800px" height="800px" viewBox="0 0 256 175" enable-background="new 0 0 256 175" xml:space="preserve">
<path d="M105.887,79.965c0.112,1.005,0,2.196-0.261,3.312l-9.49-8.746l-8.559,9.341l9.601,8.708
	c-1.116,0.372-2.196,0.633-3.312,0.633c-3.312,0.112-6.14-0.893-8.559-3.089c-2.419-2.307-3.721-4.987-3.833-8.299
	c0-1.154,0.112-2.456,0.372-3.573l-2.307-2.196L65.732,63.442L42.361,89.195c-1.414,1.898-3.61,3.2-6.14,3.2
	c-4.094,0-7.406-3.312-7.406-7.406c0-2.196,0.856-4.205,2.531-5.619l24.264-25.157L40.947,40.778
	c-1.154,0.521-2.456,0.782-3.573,0.782c-3.312,0.112-6.14-0.893-8.559-3.089s-3.721-4.875-3.833-8.187
	c-0.112-1.005,0-2.196,0.261-3.312l9.601,8.708l8.485-9.304l-9.601-8.708c1.005-0.372,2.196-0.633,3.312-0.633
	c3.312-0.112,6.14,0.893,8.559,3.089c2.419,2.158,3.721,4.987,3.833,8.299c0.112,1.116,0,2.196-0.261,3.312L64.28,45.579
	l11.053-11.946L58.81,19.082L73.807,2l42.462,37.364l-14.998,17.082l-16.97-14.96L73.621,54.101l16.598,15.184
	c1.116-0.372,2.196-0.633,3.312-0.633c3.312-0.112,6.14,0.893,8.559,3.089C104.51,73.899,105.812,76.579,105.887,79.965z
	 M87.651,149.576c0,12.775-10.338,23.113-23.113,23.113c-12.775,0-23.113-10.338-23.113-23.113
	c0-12.775,10.338-23.113,23.113-23.113C77.314,126.463,87.651,136.801,87.651,149.576z M73.391,149.576c0-4.853-4-8.853-8.853-8.853
	c-4.853,0-8.853,4-8.853,8.853c0,4.853,4,8.853,8.853,8.853C69.391,158.429,73.391,154.429,73.391,149.576z M233.156,149.592
	c0,12.775-10.338,23.113-23.113,23.113c-12.775,0-23.113-10.338-23.113-23.113c0-12.775,10.338-23.113,23.113-23.113
	C222.818,126.479,233.156,136.817,233.156,149.592z M218.896,149.592c0-4.853-4-8.853-8.853-8.853c-4.853,0-8.853,4-8.853,8.853
	c0,4.853,4,8.853,8.853,8.853C214.896,158.445,218.896,154.445,218.896,149.592z M2,108.799h129v36H99.924h-3.195
	c-0.924-0.242-1.681-0.83-1.849-1.755c-2.521-14.456-15.129-24.482-30.341-24.482s-27.82,10.026-30.341,24.482
	c-0.168,0.84-0.924,1.512-1.848,1.755H10c-4.481-0.242-8-3.874-8-8.356V108.799z M254,129.765v6.219c0,4.707-4.209,8.815-9,8.815h-3
	c-0.924,0-1.448-0.83-1.616-1.755c-2.521-14.456-15.129-25.466-30.341-25.466s-27.82,11.01-30.341,25.466
	c-0.168,0.84-0.777,1.755-1.702,1.755h-40v-92h27c2.437,0.084,4.482,1.514,6.163,3.195L208.565,92.4
	c0.336,0.336,0.931,0.4,1.435,0.4h24c7.48,0,13,6.604,13,14v21h5C253.009,127.799,254,128.841,254,129.765z M192.007,89.794
	l-27.063-25.9c-0.42-0.336-1.439-1.095-1.944-1.095h-13c-1.009,0-2,0.991-2,2v26c0,1.009,0.991,2,2,2h41
	C192.597,92.799,193.016,91.055,192.007,89.794z"/>
</svg>